<?xml version="1.0" encoding="utf-8"?>
<!-- Generator: Adobe Illustrator 18.1.1, SVG Export Plug-In . SVG Version: 6.00 Build 0)  -->
<svg version="1.1" id="Layer_1" xmlns:sketch="http://www.bohemiancoding.com/sketch/ns"
	 xmlns="http://www.w3.org/2000/svg" xmlns:xlink="http://www.w3.org/1999/xlink" x="0px" y="0px" viewBox="-321 280.3 174.4 35"
	 enable-background="new -321 280.3 174.4 35" xml:space="preserve">
<g id="MTS" sketch:type="MSPage">
	<g id="_x30_0-2560x1250---Icons" transform="translate(-30.000000, -38.000000)" sketch:type="MSArtboardGroup">
		<g id="Музыка-_x2B_-МТС-_x2B_-Logo-Copy-2" transform="translate(30.000000, 38.000000)" sketch:type="MSLayerGroup">
			<g id="MTS_logo_tagline_min_ru_rgb" sketch:type="MSShapeGroup">
				<path id="Fill-20" fill="#FFFFFF" d="M-223.9,301.5c0,0-2.1,0.3-4.4,0.3c-2.9,0-3.5-0.9-3.5-3.2v-2.8c0-2.4,0.5-3.2,3.5-3.2
					c2.1,0,4.2,0.3,4.2,0.3l0.3-4.2c0,0-2.6-0.4-4.9-0.4c-6,0-8.2,2-8.2,6.8v4.2c0,5.3,2.7,6.8,8.2,6.8c2.2,0,5.2-0.4,5.2-0.4
					L-223.9,301.5"/>
				<path id="Fill-21" fill="#FFFFFF" d="M-249,292.7v13.6h5.2v-13.6h5l0.3-4.4h-15.8l0.3,4.4H-249z"/>
				<g id="Group-25">
					<path id="Fill-22" fill="#FFFFFF" d="M-262.8,297.2h0.3l1,9.1h4.5l-1-18h-4.9l-4.2,9.8h-0.3l-4.4-9.8h-4.8l-1.5,18h5l0.7-9.1
						h0.3l3.1,7.1h3.3L-262.8,297.2z"/>
					<path id="Fill-24" fill="#FFFFFF" d="M-289.5,280.3h-28c-1.9,0-3.5,1.6-3.5,3.5v28c0,1.9,1.6,3.5,3.5,3.5h28
						c1.9,0,3.5-1.6,3.5-3.5v-28C-286,281.8-287.6,280.3-289.5,280.3 M-287.8,311.8c0,1-0.8,1.7-1.7,1.7h-28c-1,0-1.7-0.8-1.7-1.7
						v-28c0-1,0.8-1.7,1.7-1.7h28c1,0,1.7,0.8,1.7,1.7V311.8"/>
				</g>
				<path id="Fill-26" fill="#FFFFFF" d="M-303.7,310.1c-6,0-8.7-4.8-8.7-9.6c0-3.3,1.1-7,2.9-10c1.8-2.9,3.9-4.7,5.7-4.7
					c1.8,0,4,1.7,5.7,4.7c1.8,3,2.9,6.8,2.9,10C-295,305.3-297.7,310.1-303.7,310.1"/>
			</g>
		</g>
	</g>
</g>
<g>
	<path fill="#FFFFFF" d="M-207.7,288.1l5.7,15.3l5.8-15.3h3.3v18.2h-2.3v-15.2h-0.1l-5.7,15.2h-2.1l-5.7-15.2h-0.1v15.2h-2.3v-18.2
		H-207.7z"/>
	<path fill="#FFFFFF" d="M-180.7,306.3v-2.1h-0.1c-0.5,0.8-1,1.4-1.8,1.8c-0.7,0.4-1.6,0.6-2.5,0.6c-0.9,0-1.6-0.1-2.2-0.3
		s-1-0.6-1.4-1c-0.4-0.4-0.6-0.9-0.8-1.5c-0.1-0.6-0.2-1.2-0.2-2v-8.7h2.2v8.9c0,0.8,0.2,1.5,0.7,1.9c0.5,0.5,1.1,0.7,2,0.7
		c0.7,0,1.2-0.1,1.7-0.3c0.5-0.2,0.9-0.5,1.2-0.9c0.3-0.4,0.6-0.8,0.7-1.3c0.2-0.5,0.2-1,0.2-1.6v-7.4h2.2v13.2H-180.7z"/>
	<path fill="#FFFFFF" d="M-174.1,303.4c0.2,0.3,0.5,0.6,0.8,0.8c0.3,0.2,0.7,0.3,1.1,0.4s0.8,0.1,1.3,0.1c0.3,0,0.7,0,1.1-0.1
		c0.4-0.1,0.7-0.1,1-0.3c0.3-0.1,0.6-0.3,0.8-0.6s0.3-0.6,0.3-1c0-0.6-0.2-1-0.6-1.3c-0.4-0.3-1-0.5-1.6-0.7s-1.3-0.3-2.1-0.5
		s-1.4-0.3-2.1-0.6s-1.2-0.6-1.6-1.1c-0.4-0.5-0.6-1.1-0.6-2c0-0.7,0.1-1.2,0.4-1.7s0.7-0.9,1.1-1.2s1-0.5,1.6-0.7
		c0.6-0.1,1.2-0.2,1.7-0.2c0.7,0,1.4,0.1,2.1,0.2s1.2,0.3,1.7,0.7c0.5,0.3,0.9,0.7,1.2,1.3c0.3,0.5,0.5,1.2,0.5,2h-2.2
		c0-0.4-0.1-0.8-0.3-1.1s-0.4-0.5-0.7-0.7c-0.3-0.2-0.6-0.3-1-0.4c-0.3-0.1-0.7-0.1-1.1-0.1c-0.3,0-0.7,0-1,0.1
		c-0.3,0.1-0.6,0.1-0.9,0.3c-0.3,0.1-0.5,0.3-0.7,0.5c-0.2,0.2-0.3,0.5-0.3,0.8c0,0.4,0.1,0.7,0.4,0.9s0.6,0.5,1,0.6
		s0.9,0.3,1.4,0.4c0.5,0.1,1,0.2,1.5,0.3c0.5,0.1,1.1,0.3,1.6,0.4s1,0.4,1.4,0.7c0.4,0.3,0.7,0.6,1,1.1c0.2,0.4,0.4,1,0.4,1.6
		c0,0.8-0.2,1.5-0.5,2c-0.3,0.5-0.8,1-1.3,1.3c-0.5,0.3-1.1,0.5-1.8,0.7c-0.7,0.1-1.3,0.2-2,0.2c-0.7,0-1.4-0.1-2.1-0.2
		c-0.7-0.2-1.2-0.4-1.8-0.8c-0.5-0.3-0.9-0.8-1.2-1.4c-0.3-0.6-0.5-1.3-0.5-2.1h2.2C-174.4,302.6-174.3,303-174.1,303.4z"/>
	<path fill="#FFFFFF" d="M-163.2,290.8v-2.7h2.2v2.7H-163.2z M-161,293.1v13.2h-2.2v-13.2H-161z"/>
	<path fill="#FFFFFF" d="M-150.1,295.4c-0.5-0.5-1.3-0.7-2.2-0.7c-0.8,0-1.4,0.1-2,0.4s-0.9,0.7-1.3,1.1c-0.3,0.5-0.5,1-0.7,1.6
		c-0.1,0.6-0.2,1.3-0.2,1.9c0,0.6,0.1,1.2,0.2,1.8c0.1,0.6,0.4,1.1,0.7,1.5c0.3,0.5,0.7,0.8,1.2,1.1c0.5,0.3,1.1,0.4,1.8,0.4
		c1.1,0,1.9-0.3,2.5-0.8c0.6-0.6,1-1.4,1.1-2.4h2.2c-0.2,1.6-0.8,2.9-1.8,3.8c-1,0.9-2.3,1.3-4,1.3c-1,0-1.9-0.2-2.7-0.5
		c-0.8-0.3-1.4-0.8-1.9-1.4c-0.5-0.6-0.9-1.3-1.2-2.1s-0.4-1.7-0.4-2.7s0.1-1.9,0.4-2.8c0.3-0.9,0.6-1.6,1.2-2.2
		c0.5-0.6,1.2-1.1,2-1.5c0.8-0.4,1.7-0.5,2.7-0.5c0.7,0,1.4,0.1,2.1,0.3c0.7,0.2,1.2,0.5,1.7,0.8s0.9,0.8,1.2,1.4
		c0.3,0.6,0.5,1.2,0.6,2h-2.2C-149.2,296.5-149.5,295.9-150.1,295.4z"/>
</g>
</svg>
